<?xml version="1.0" standalone="no"?>
<!DOCTYPE svg PUBLIC "-//W3C//DTD SVG 20010904//EN"
 "http://www.w3.org/TR/2001/REC-SVG-20010904/DTD/svg10.dtd">
<svg version="1.0" xmlns="http://www.w3.org/2000/svg"
 width="16.000000pt" height="16.000000pt" viewBox="0 0 16.000000 16.000000"
 preserveAspectRatio="xMidYMid meet">

<g transform="translate(0.000000,16.000000) scale(0.100000,-0.100000)"
fill="#000000" stroke="none">
<path d="M56 142 c-3 -5 6 -7 19 -4 15 2 25 0 25 -7 0 -6 -13 -11 -29 -11 -16
0 -36 -3 -45 -6 -23 -9 -20 -51 4 -64 18 -10 20 -8 20 20 0 25 4 30 25 30 18
0 25 -5 25 -20 0 -13 -7 -20 -20 -20 -27 0 -25 -18 3 -23 17 -3 16 -5 -8 -6
-25 -1 -27 -3 -13 -12 14 -8 26 -4 53 18 38 30 44 53 20 73 -13 11 -14 8 -9
-19 4 -19 2 -31 -4 -31 -6 0 -12 19 -14 43 -2 34 -7 43 -25 45 -11 2 -24 -1
-27 -6z m-19 -74 c-3 -7 -5 -2 -5 12 0 14 2 19 5 13 2 -7 2 -19 0 -25z"/>
</g>
</svg>
